<svg width="18" height="18" viewBox="0 0 18 18" fill="none" xmlns="http://www.w3.org/2000/svg">
<mask id="mask0_75_76" style="mask-type:luminance" maskUnits="userSpaceOnUse" x="0" y="0" width="18" height="18">
<path d="M17.5 0H0V17.5H17.5V0Z" fill="white"/>
</mask>
<g mask="url(#mask0_75_76)">
<path d="M17.15 8.94899C17.15 8.32853 17.0943 7.73195 16.9909 7.15918H8.75V10.5439H13.4591C13.2562 11.6376 12.6398 12.5643 11.7131 13.1848V15.3802H14.5409C16.1955 13.857 17.15 11.6137 17.15 8.94899Z" fill="#4285F4"/>
<path d="M8.75001 17.5001C11.1125 17.5001 13.0932 16.7165 14.5409 15.3802L11.713 13.1848C10.9296 13.7098 9.92724 14.02 8.75001 14.02C6.47099 14.02 4.54205 12.4807 3.85395 10.4126H0.930664V12.6796C2.37048 15.5393 5.32955 17.5001 8.75001 17.5001Z" fill="#34A853"/>
<path d="M3.85394 10.4126C3.67894 9.88759 3.57954 9.32681 3.57954 8.75009C3.57954 8.17338 3.67894 7.61259 3.85394 7.08759V4.82056H0.93065C0.3381 6.00181 0 7.33819 0 8.75009C0 10.162 0.3381 11.4984 0.93065 12.6796L3.85394 10.4126Z" fill="#FBBC04"/>
<path d="M8.75001 3.48014C10.0346 3.48014 11.188 3.92158 12.0949 4.78861L14.6046 2.27894C13.0892 0.867037 11.1085 0 8.75001 0C5.32955 0 2.37048 1.96079 0.930664 4.82046L3.85395 7.0875C4.54205 5.01935 6.47099 3.48014 8.75001 3.48014Z" fill="#E94235"/>
</g>
</svg>
